<svg width="40" height="40" viewBox="0 0 40 40" fill="none" xmlns="http://www.w3.org/2000/svg">
<g id="twemoji:telephone-receiver" clip-path="url(#clip0_31_384)">
<path id="Vector" d="M37.8445 29.3411L33.96 25.4567C33.257 24.754 32.3765 24.2554 31.4123 24.0139C30.4482 23.7724 29.4365 23.7972 28.4853 24.0855C27.5341 24.3738 26.679 24.9149 26.0112 25.6511C25.3434 26.3872 24.8879 27.2908 24.6933 28.2656C18.2878 27.0678 12.0578 20.8633 11.67 15.3178C12.7592 15.118 13.7615 14.5909 14.5433 13.8067C15.5732 12.7767 16.1517 11.3798 16.1517 9.92334C16.1517 8.46683 15.5732 7.06998 14.5433 6.04L10.66 2.15556C9.63003 1.12572 8.23317 0.54718 6.77667 0.54718C5.32016 0.54718 3.9233 1.12572 2.89333 2.15556C-8.75778 13.8067 26.1933 48.7578 37.8445 37.1067C38.8737 36.0766 39.4518 34.68 39.4518 33.2239C39.4518 31.7678 38.8737 30.3712 37.8445 29.3411Z" fill="#FF760D"/>
</g>
<defs>
<clipPath id="clip0_31_384">
<rect width="40" height="40" fill="white"/>
</clipPath>
</defs>
</svg>
