<svg width="50" height="50" viewBox="0 0 50 50" fill="none" xmlns="http://www.w3.org/2000/svg">
<g id="&#227;&#131;&#161;&#227;&#131;&#188;&#227;&#131;&#171;&#227;&#129;&#174;&#227;&#130;&#162;&#227;&#130;&#164;&#227;&#130;&#179;&#227;&#131;&#179;&#227;&#129;&#157;&#227;&#129;&#174;9 2">
<g id="Group">
<path id="Vector" d="M44.6583 13.6935C44.4931 12.8585 44.1205 12.0692 43.577 11.4057C43.4666 11.2664 43.3511 11.1425 43.2248 11.0168C42.2578 10.0446 40.9127 9.48706 39.5342 9.48706H10.2213C8.82749 9.48706 7.51657 10.0306 6.53005 11.0173C6.40519 11.1419 6.28942 11.2671 6.17481 11.4108C5.63361 12.0715 5.26268 12.8596 5.10141 13.6958C5.03401 14.0242 5 14.3644 5 14.7086V35.2959C5 36.0122 5.14551 36.7096 5.43397 37.3726C5.68361 37.9614 6.06238 38.5197 6.52974 38.9868C6.64745 39.104 6.76439 39.212 6.88925 39.3174C7.82366 40.0912 9.00686 40.5171 10.2213 40.5171H39.5342C40.7565 40.5171 41.9385 40.0896 42.8705 39.3089C42.995 39.2081 43.1105 39.1022 43.2259 38.9868C43.6777 38.5355 44.0367 38.017 44.2948 37.4452L44.3288 37.3636C44.6119 36.7132 44.7557 36.018 44.7557 35.296V14.7086C44.7557 14.3689 44.7229 14.0264 44.6583 13.6935ZM7.70393 12.8194C7.77777 12.7113 7.87204 12.6003 7.99231 12.4791C8.58935 11.8824 9.38112 11.554 10.2213 11.554H39.5341C40.3816 11.554 41.1736 11.883 41.7641 12.4803C41.866 12.5833 41.9634 12.6977 42.0483 12.812L42.2725 13.1133L26.6265 26.7495C26.1441 27.1724 25.5231 27.4051 24.8776 27.4051C24.2385 27.4051 23.618 27.1729 23.1299 26.75L7.49948 13.1172L7.70393 12.8194ZM7.07747 35.4777C7.069 35.4217 7.06706 35.3594 7.06706 35.2959V15.1349L19.2088 25.7269L7.18959 36.2064L7.07747 35.4777ZM41.0984 38.0344C40.6285 38.3056 40.0873 38.4494 39.5342 38.4494H10.2213C9.66795 38.4494 9.12698 38.3056 8.65737 38.0344L8.16601 37.7496L20.5847 26.9271L21.9457 28.111C22.7621 28.8197 23.8032 29.2105 24.8778 29.2105C25.9563 29.2105 26.9991 28.8197 27.8149 28.111L29.1754 26.9266L41.5898 37.7502L41.0984 38.0344ZM42.6881 35.2959C42.6881 35.3583 42.6869 35.42 42.6791 35.4748L42.5714 36.2103L30.5471 25.7326L42.6881 15.1401V35.2959Z" fill="#FF760D"/>
</g>
</g>
</svg>
